<svg width="25" height="26" viewBox="0 0 25 26" fill="none" xmlns="http://www.w3.org/2000/svg">
<path d="M12.4707 13.5008C15.0875 13.5008 17.3304 11.2218 17.3304 8.56292C17.3304 5.90404 15.0875 3.625 12.4707 3.625C9.85389 3.625 7.61093 5.90404 7.61093 8.56292C7.61093 11.2218 9.85389 13.5008 12.4707 13.5008ZM19.5734 17.5291C14.7136 13.5408 7.61093 14.3005 3.68574 19.2384C3.31191 19.8082 3.125 20.3779 3.125 20.9477C3.125 22.2771 4.24648 23.4167 5.55488 23.4167H19.3865C20.3211 23.4167 21.2556 22.8469 21.6294 22.0872C22.0033 21.3275 22.0033 20.188 21.2556 19.4283C20.6949 18.6687 20.1341 18.0989 19.5734 17.5291Z" fill="black"/>
</svg>
