<svg width="30" height="30" viewBox="0 0 30 30" fill="none" xmlns="http://www.w3.org/2000/svg">
<path d="M21.0273 6.41801C20.1109 5.36742 19.5599 3.99756 19.5599 2.5H18.4117C18.7074 4.13687 19.6818 5.54158 21.0273 6.41801Z" fill="black"/>
<path d="M10.4022 14.881C8.41298 14.881 6.79489 16.5005 6.79489 18.4914C6.79489 19.8787 7.58363 21.086 8.73195 21.6897C8.30279 21.0976 8.0476 20.3721 8.0476 19.5826C8.0476 17.5917 9.66569 15.9722 11.655 15.9722C12.0262 15.9722 12.3857 16.036 12.7221 16.1405V11.7524C12.3741 11.7059 12.0204 11.6769 11.655 11.6769C11.5912 11.6769 11.5332 11.6827 11.4694 11.6827V15.0493C11.1272 14.9448 10.7734 14.881 10.4022 14.881Z" fill="black"/>
<path d="M24.2807 8.3451V11.6827C22.0536 11.6827 19.9889 10.9688 18.307 9.76139V18.4972C18.307 22.8564 14.7635 26.4088 10.4021 26.4088C8.72026 26.4088 7.15437 25.8747 5.87265 24.975C7.31675 26.5248 9.37561 27.5 11.6549 27.5C16.0104 27.5 19.5598 23.9534 19.5598 19.5884V10.8526C21.2416 12.06 23.3063 12.7739 25.5333 12.7739V8.47866C25.0983 8.47866 24.6808 8.43217 24.2807 8.3451Z" fill="black"/>
<path d="M18.307 18.4972V9.76139C19.9889 10.9688 22.0536 11.6827 24.2807 11.6827V8.3451C22.9931 8.07236 21.8624 7.37579 21.0273 6.41801C19.6817 5.54158 18.713 4.13687 18.4056 2.5H15.2622L15.2564 19.7219C15.1869 21.649 13.5977 23.1988 11.6549 23.1988C10.4486 23.1988 9.38722 22.601 8.72607 21.6955C7.57774 21.086 6.789 19.8845 6.789 18.4972C6.789 16.5063 8.40708 14.8868 10.3964 14.8868C10.7675 14.8868 11.1271 14.9506 11.4635 15.0551V11.6885C7.19497 11.7814 3.75 15.2873 3.75 19.5884C3.75 21.6664 4.55615 23.5587 5.87265 24.975C7.15437 25.8747 8.72026 26.4088 10.4021 26.4088C14.7577 26.4088 18.307 22.8564 18.307 18.4972Z" fill="black"/>
</svg>
